<svg width="138" height="14" viewBox="0 0 138 14" fill="none" xmlns="http://www.w3.org/2000/svg">
<path id="LEARNDECK." fill-rule="evenodd" clip-rule="evenodd" d="M114.133 12.6432C113.255 13.0626 112.289 13.2722 111.235 13.2722C109.931 13.2722 108.784 13.0002 107.792 12.4562C106.801 11.9122 106.027 11.1614 105.472 10.2037C104.916 9.24608 104.639 8.14958 104.639 6.91424C104.639 5.99624 104.803 5.14908 105.132 4.37274C105.46 3.59641 105.922 2.92491 106.517 2.35824C107.112 1.79158 107.815 1.35241 108.625 1.04074C109.436 0.729076 110.328 0.573242 111.303 0.573242C112.357 0.573242 113.312 0.782909 114.167 1.20224C115.023 1.62158 115.723 2.16558 116.267 2.83424L114.397 4.75524C114.045 4.25658 113.601 3.86274 113.062 3.57374C112.524 3.28474 111.937 3.14024 111.303 3.14024C110.623 3.14024 110.014 3.30174 109.475 3.62474C108.937 3.94774 108.515 4.39258 108.209 4.95924C107.903 5.52591 107.75 6.17758 107.75 6.91424C107.75 7.65091 107.903 8.30541 108.209 8.87774C108.515 9.45008 108.937 9.89774 109.475 10.2207C110.014 10.5437 110.623 10.7052 111.303 10.7052C111.937 10.7052 112.524 10.5579 113.062 10.2632C113.601 9.96858 114.045 9.57758 114.397 9.09024L116.267 11.0112C115.723 11.6799 115.012 12.2239 114.133 12.6432ZM8.41869 13.0002V10.5012H2.97869V0.845242H0.0546875V13.0002H8.41869ZM20.5567 13.0002V10.5692H14.6067V8.10424H20.2337V5.67324H14.6067V3.27624H20.5567V0.845242H11.6827V13.0002H20.5567ZM27.2887 10.7902L26.4897 13.0002H23.4467L28.1897 0.845242H31.4367L36.1797 13.0002H33.0347L32.2357 10.7902H27.2887ZM28.1897 8.35924L29.7707 4.00724L31.3517 8.35924H28.1897ZM42.2827 8.66524V13.0002H39.3587V0.845242H44.4417C45.3484 0.845242 46.1474 1.00958 46.8387 1.33824C47.53 1.66691 48.0684 2.12308 48.4537 2.70674C48.839 3.29041 49.0317 3.97324 49.0317 4.75524C49.0317 5.54858 48.8249 6.24558 48.4112 6.84624C47.9975 7.44691 47.4337 7.90591 46.7197 8.22324L50.3237 13.0002H46.7877L43.6767 8.66524H42.2827ZM44.4417 6.23424H42.2827V3.27624H44.4417C44.9404 3.27624 45.337 3.40941 45.6317 3.67574C45.9264 3.94208 46.0737 4.30191 46.0737 4.75524C46.0737 5.20858 45.9264 5.56841 45.6317 5.83474C45.337 6.10108 44.9404 6.23424 44.4417 6.23424ZM56.2057 5.40124V13.0002H53.3327V0.845242H56.3757L61.4417 8.44424V0.845242H64.3147V13.0002H61.2717L56.2057 5.40124ZM82.6067 13.0002C83.9554 13.0002 85.1312 12.7396 86.1342 12.2182C87.1372 11.6969 87.9164 10.9801 88.4717 10.0677C89.027 9.15541 89.3047 8.10424 89.3047 6.91424C89.3047 5.72424 89.027 4.67308 88.4717 3.76074C87.9164 2.84841 87.1372 2.13441 86.1342 1.61874C85.1312 1.10308 83.9554 0.845242 82.6067 0.845242H78.1527V13.0002H82.6067ZM81.0767 10.5692H82.6067C83.7287 10.5692 84.6127 10.2406 85.2587 9.58324C85.9047 8.92591 86.2277 8.03624 86.2277 6.91424C86.2277 5.80358 85.9047 4.91958 85.2587 4.26224C84.6127 3.60491 83.7287 3.27624 82.6067 3.27624H81.0767V10.5692ZM101.715 13.0002V10.5692H95.7647V8.10424H101.392V5.67324H95.7647V3.27624H101.715V0.845242H92.8407V13.0002H101.715ZM122.455 13.0002V7.16924L127.606 13.0002H131.414L125.685 6.69324L130.7 0.845242H127.164L122.455 6.50624V0.845242H119.531V13.0002H122.455ZM136.939 12.6942C136.61 13.0116 136.208 13.1702 135.732 13.1702C135.256 13.1702 134.853 13.0116 134.525 12.6942C134.196 12.3769 134.032 11.9916 134.032 11.5382C134.032 11.0736 134.196 10.6826 134.525 10.3652C134.853 10.0479 135.256 9.88924 135.732 9.88924C136.208 9.88924 136.61 10.0479 136.939 10.3652C137.267 10.6826 137.432 11.0736 137.432 11.5382C137.432 11.9916 137.267 12.3769 136.939 12.6942Z" fill="black"/>
</svg>
