<svg width="145" height="14" viewBox="0 0 145 14" fill="none" xmlns="http://www.w3.org/2000/svg">
<path id="LEARNDECK." fill-rule="evenodd" clip-rule="evenodd" d="M119.533 12.6432C118.655 13.0626 117.689 13.2722 116.635 13.2722C115.331 13.2722 114.184 13.0002 113.192 12.4562C112.201 11.9122 111.427 11.1614 110.872 10.2037C110.316 9.24608 110.039 8.14958 110.039 6.91424C110.039 5.99624 110.203 5.14908 110.532 4.37274C110.86 3.59641 111.322 2.92491 111.917 2.35824C112.512 1.79158 113.215 1.35241 114.025 1.04074C114.836 0.729076 115.728 0.573242 116.703 0.573242C117.757 0.573242 118.712 0.782909 119.567 1.20224C120.423 1.62158 121.123 2.16558 121.667 2.83424L119.797 4.75524C119.445 4.25658 119.001 3.86274 118.462 3.57374C117.924 3.28474 117.337 3.14024 116.703 3.14024C116.023 3.14024 115.414 3.30174 114.875 3.62474C114.337 3.94774 113.915 4.39258 113.609 4.95924C113.303 5.52591 113.15 6.17758 113.15 6.91424C113.15 7.65091 113.303 8.30541 113.609 8.87774C113.915 9.45008 114.337 9.89774 114.875 10.2207C115.414 10.5437 116.023 10.7052 116.703 10.7052C117.337 10.7052 117.924 10.5579 118.462 10.2632C119.001 9.96858 119.445 9.57758 119.797 9.09024L121.667 11.0112C121.123 11.6799 120.412 12.2239 119.533 12.6432ZM8.41869 13.0002V10.5012H2.97869V0.845242H0.0546875V13.0002H8.41869ZM21.1567 13.0002V10.5692H15.2067V8.10424H20.8337V5.67324H15.2067V3.27624H21.1567V0.845242H12.2827V13.0002H21.1567ZM28.4887 10.7902L27.6897 13.0002H24.6467L29.3897 0.845242H32.6367L37.3797 13.0002H34.2347L33.4357 10.7902H28.4887ZM29.3897 8.35924L30.9707 4.00724L32.5517 8.35924H29.3897ZM44.0827 8.66524V13.0002H41.1587V0.845242H46.2417C47.1484 0.845242 47.9474 1.00958 48.6387 1.33824C49.33 1.66691 49.8684 2.12308 50.2537 2.70674C50.639 3.29041 50.8317 3.97324 50.8317 4.75524C50.8317 5.54858 50.6249 6.24558 50.2112 6.84624C49.7975 7.44691 49.2337 7.90591 48.5197 8.22324L52.1237 13.0002H48.5877L45.4767 8.66524H44.0827ZM46.2417 6.23424H44.0827V3.27624H46.2417C46.7404 3.27624 47.137 3.40941 47.4317 3.67574C47.7264 3.94208 47.8737 4.30191 47.8737 4.75524C47.8737 5.20858 47.7264 5.56841 47.4317 5.83474C47.137 6.10108 46.7404 6.23424 46.2417 6.23424ZM58.6057 5.40124V13.0002H55.7327V0.845242H58.7757L63.8417 8.44424V0.845242H66.7147V13.0002H63.6717L58.6057 5.40124ZM86.8067 13.0002C88.1553 13.0002 89.3312 12.7396 90.3342 12.2182C91.3372 11.6969 92.1163 10.9801 92.6717 10.0677C93.227 9.15541 93.5047 8.10424 93.5047 6.91424C93.5047 5.72424 93.227 4.67308 92.6717 3.76074C92.1163 2.84841 91.3372 2.13441 90.3342 1.61874C89.3312 1.10308 88.1553 0.845242 86.8067 0.845242H82.3527V13.0002H86.8067ZM85.2767 10.5692H86.8067C87.9287 10.5692 88.8127 10.2406 89.4587 9.58324C90.1047 8.92591 90.4277 8.03624 90.4277 6.91424C90.4277 5.80358 90.1047 4.91958 89.4587 4.26224C88.8127 3.60491 87.9287 3.27624 86.8067 3.27624H85.2767V10.5692ZM106.515 13.0002V10.5692H100.565V8.10424H106.192V5.67324H100.565V3.27624H106.515V0.845242H97.6407V13.0002H106.515ZM128.455 13.0002V7.16924L133.606 13.0002H137.414L131.685 6.69324L136.7 0.845242H133.164L128.455 6.50624V0.845242H125.531V13.0002H128.455ZM143.539 12.6942C143.21 13.0116 142.808 13.1702 142.332 13.1702C141.856 13.1702 141.453 13.0116 141.125 12.6942C140.796 12.3769 140.632 11.9916 140.632 11.5382C140.632 11.0736 140.796 10.6826 141.125 10.3652C141.453 10.0479 141.856 9.88924 142.332 9.88924C142.808 9.88924 143.21 10.0479 143.539 10.3652C143.867 10.6826 144.032 11.0736 144.032 11.5382C144.032 11.9916 143.867 12.3769 143.539 12.6942Z" fill="white"/>
</svg>
