<svg width="143" height="22" viewBox="0 0 143 22" fill="none" xmlns="http://www.w3.org/2000/svg">
<g id="social">
<g id="facebook-logo">
<path id="Path" d="M11.2605 0.00434708L8.4578 0C5.3091 0 3.27427 2.01813 3.27427 5.14173V7.5124H0.456317C0.212812 7.5124 0.015625 7.70324 0.015625 7.93864V11.3735C0.015625 11.6089 0.213037 11.7995 0.456317 11.7995H3.27427V20.4667C3.27427 20.7021 3.47146 20.8927 3.71496 20.8927H7.39159C7.6351 20.8927 7.83228 20.7019 7.83228 20.4667V11.7995H11.1271C11.3706 11.7995 11.5678 11.6089 11.5678 11.3735L11.5692 7.93864C11.5692 7.82561 11.5226 7.71737 11.4401 7.63738C11.3576 7.5574 11.2452 7.5124 11.1283 7.5124H7.83228V5.50275C7.83228 4.53683 8.07039 4.04648 9.37201 4.04648L11.26 4.04583C11.5033 4.04583 11.7005 3.85499 11.7005 3.61981V0.430361C11.7005 0.195401 11.5035 0.00478179 11.2605 0.00434708Z" fill="black"/>
</g>
<g id="iconmonstr-twitter-1">
<path id="Path_2" d="M56.832 4.17713C56.0226 4.53646 55.1527 4.77846 54.2397 4.88755C55.1719 4.3293 55.8879 3.44471 56.2243 2.39055C55.3525 2.90755 54.3864 3.28338 53.3579 3.48596C52.5356 2.60871 51.3614 2.06055 50.0634 2.06055C47.1493 2.06055 45.0079 4.77938 45.6661 7.6018C41.916 7.41388 38.5904 5.61721 36.3638 2.88646C35.1813 4.91505 35.7505 7.5688 37.7599 8.91263C37.021 8.8888 36.3244 8.68621 35.7166 8.34796C35.6671 10.4389 37.1659 12.395 39.3365 12.8305C38.7013 13.0028 38.0055 13.0431 37.2979 12.9075C37.8717 14.7005 39.5382 16.0049 41.5145 16.0415C39.617 17.5293 37.2264 18.1939 34.832 17.9115C36.8294 19.1921 39.2027 19.9392 41.751 19.9392C50.1312 19.9392 54.8658 12.8616 54.5798 6.51371C55.4616 5.87663 56.227 5.08188 56.832 4.17713Z" fill="black"/>
</g>
<g id="iconmonstr-instagram-11">
<path id="Shape" fill-rule="evenodd" clip-rule="evenodd" d="M90.7513 0.916992C88.0128 0.916992 87.67 0.928756 86.5944 0.977492C82.9325 1.14555 80.8974 3.17734 80.7293 6.84263C80.6797 7.91903 80.668 8.26186 80.668 11.0003C80.668 13.7388 80.6797 14.0825 80.7285 15.158C80.8965 18.82 82.9283 20.8551 86.5936 21.0232C87.67 21.0719 88.0128 21.0837 90.7513 21.0837C93.4898 21.0837 93.8334 21.0719 94.909 21.0232C98.5676 20.8551 100.608 18.8233 100.773 15.158C100.823 14.0825 100.835 13.7388 100.835 11.0003C100.835 8.26186 100.823 7.91903 100.774 6.84347C100.609 3.1849 98.5751 1.14639 94.9098 0.978332C93.8334 0.928756 93.4898 0.916992 90.7513 0.916992ZM90.7513 2.73451C93.4436 2.73451 93.7629 2.7446 94.8266 2.79333C97.5592 2.91769 98.8356 4.21424 98.96 6.92666C99.0087 7.98961 99.018 8.30892 99.018 11.0012C99.018 13.6943 99.0079 14.0127 98.96 15.0757C98.8348 17.7856 97.5618 19.0846 94.8266 19.209C93.7629 19.2577 93.4452 19.2678 90.7513 19.2678C88.0591 19.2678 87.7397 19.2577 86.6768 19.209C83.9375 19.0838 82.6678 17.7814 82.5435 15.0748C82.4947 14.0119 82.4846 13.6934 82.4846 11.0003C82.4846 8.30808 82.4956 7.98961 82.5435 6.92582C82.6687 4.21424 83.9417 2.91685 86.6768 2.79249C87.7406 2.7446 88.0591 2.73451 90.7513 2.73451ZM85.5735 11.0003C85.5735 8.14086 87.8918 5.82253 90.7513 5.82253C93.6108 5.82253 95.9291 8.14086 95.9291 11.0003C95.9291 13.8606 93.6108 16.179 90.7513 16.179C87.8918 16.179 85.5735 13.8598 85.5735 11.0003ZM90.7513 14.3614C88.8951 14.3614 87.3902 12.8573 87.3902 11.0003C87.3902 9.14415 88.8951 7.63921 90.7513 7.63921C92.6075 7.63921 94.1124 9.14415 94.1124 11.0003C94.1124 12.8573 92.6075 14.3614 90.7513 14.3614ZM94.9233 5.61835C94.9233 4.95033 95.4653 4.40835 96.1341 4.40835C96.8021 4.40835 97.3433 4.95033 97.3433 5.61835C97.3433 6.28637 96.8021 6.82835 96.1341 6.82835C95.4653 6.82835 94.9233 6.28637 94.9233 5.61835Z" fill="black"/>
</g>
<g id="iconfinder_33-pinterest_104469">
<path id="Path_3" d="M134.399 1.17383C128.795 1.17383 125.969 5.20033 125.969 8.55878C125.969 10.5919 126.737 12.4005 128.384 13.0739C128.654 13.1855 128.896 13.0781 128.975 12.7783C129.029 12.5716 129.158 12.0483 129.216 11.8296C129.294 11.5332 129.264 11.4298 129.046 11.1706C128.571 10.6097 128.267 9.8829 128.267 8.85271C128.267 5.86549 130.497 3.19121 134.074 3.19121C137.242 3.19121 138.982 5.13088 138.982 7.72082C138.982 11.1297 137.477 14.0066 135.243 14.0066C134.009 14.0066 133.086 12.9842 133.381 11.7296C133.735 10.2318 134.422 8.61624 134.422 7.53438C134.422 6.56703 133.904 5.76007 132.832 5.76007C131.57 5.76007 130.557 7.06807 130.557 8.81964C130.557 9.9354 130.933 10.6903 130.933 10.6903C130.933 10.6903 129.642 16.1719 129.416 17.1318C128.965 19.0438 129.348 21.387 129.381 21.6234C129.4 21.764 129.579 21.7979 129.661 21.692C129.777 21.5395 131.28 19.6809 131.79 17.823C131.935 17.2976 132.62 14.5741 132.62 14.5741C133.03 15.358 134.228 16.0467 135.502 16.0467C139.293 16.0467 141.866 12.5828 141.866 7.94613C141.866 4.43926 138.903 1.17383 134.399 1.17383Z" fill="black"/>
</g>
</g>
</svg>
